<mxfile host="app.diagrams.net" modified="2024-03-07T00:13:48.441Z" agent="Mozilla/5.0 (Macintosh; Intel Mac OS X 10_15_7) AppleWebKit/537.36 (KHTML, like Gecko) Chrome/122.0.0.0 Safari/537.36" etag="oGHopmklT--enankClbR" version="23.1.6" type="device">
  <diagram name="PÃ¡gina-1" id="MLX7cAFpqejXQM6B0x87">
    <mxGraphModel dx="1224" dy="772" grid="1" gridSize="10" guides="1" tooltips="1" connect="1" arrows="1" fold="1" page="1" pageScale="1" pageWidth="827" pageHeight="1169" math="0" shadow="0">
      <root>
        <mxCell id="0" />
        <mxCell id="1" parent="0" />
        <mxCell id="vnbIYVcIa1wXDEjVaEzZ-17" value="" style="rounded=0;whiteSpace=wrap;html=1;dashed=1;dashPattern=8 8;" parent="1" vertex="1">
          <mxGeometry x="40" y="70" width="1040" height="780" as="geometry" />
        </mxCell>
        <mxCell id="vnbIYVcIa1wXDEjVaEzZ-66" value="&lt;h6&gt;Users&lt;/h6&gt;" style="rounded=0;whiteSpace=wrap;html=1;dashed=1;labelPosition=center;verticalLabelPosition=top;align=center;verticalAlign=bottom;" parent="1" vertex="1">
          <mxGeometry x="60" y="310" width="200" height="180" as="geometry" />
        </mxCell>
        <mxCell id="vnbIYVcIa1wXDEjVaEzZ-64" value="&lt;h6&gt;Testimonials&lt;/h6&gt;" style="rounded=0;whiteSpace=wrap;html=1;dashed=1;labelPosition=center;verticalLabelPosition=top;align=center;verticalAlign=bottom;" parent="1" vertex="1">
          <mxGeometry x="270" y="110" width="430" height="210" as="geometry" />
        </mxCell>
        <mxCell id="vnbIYVcIa1wXDEjVaEzZ-61" value="&lt;blockquote style=&quot;margin: 0 0 0 40px; border: none; padding: 0px;&quot;&gt;&lt;h6&gt;Destinations&lt;/h6&gt;&lt;/blockquote&gt;" style="rounded=0;whiteSpace=wrap;html=1;horizontal=1;verticalAlign=bottom;labelPosition=center;verticalLabelPosition=top;align=center;dashed=1;" parent="1" vertex="1">
          <mxGeometry x="760" y="110" width="310" height="190" as="geometry" />
        </mxCell>
        <mxCell id="vnbIYVcIa1wXDEjVaEzZ-38" value="" style="rounded=0;whiteSpace=wrap;html=1;dashed=1;" parent="1" vertex="1">
          <mxGeometry x="330" y="540" width="410" height="110" as="geometry" />
        </mxCell>
        <mxCell id="vnbIYVcIa1wXDEjVaEzZ-19" value="" style="rounded=0;whiteSpace=wrap;html=1;dashed=1;dashPattern=8 8;" parent="1" vertex="1">
          <mxGeometry x="65" y="710" width="960" height="120" as="geometry" />
        </mxCell>
        <mxCell id="vnbIYVcIa1wXDEjVaEzZ-1" value="&lt;div&gt;users-pictures&lt;/div&gt;" style="sketch=0;points=[[0,0,0],[0.25,0,0],[0.5,0,0],[0.75,0,0],[1,0,0],[0,1,0],[0.25,1,0],[0.5,1,0],[0.75,1,0],[1,1,0],[0,0.25,0],[0,0.5,0],[0,0.75,0],[1,0.25,0],[1,0.5,0],[1,0.75,0]];outlineConnect=0;fontColor=#232F3E;fillColor=#7AA116;strokeColor=#ffffff;dashed=0;verticalLabelPosition=bottom;verticalAlign=top;align=center;html=1;fontSize=12;fontStyle=0;aspect=fixed;shape=mxgraph.aws4.resourceIcon;resIcon=mxgraph.aws4.s3;" parent="1" vertex="1">
          <mxGeometry x="930" y="575" width="40" height="40" as="geometry" />
        </mxCell>
        <mxCell id="vnbIYVcIa1wXDEjVaEzZ-2" value="destinations-pictures" style="sketch=0;points=[[0,0,0],[0.25,0,0],[0.5,0,0],[0.75,0,0],[1,0,0],[0,1,0],[0.25,1,0],[0.5,1,0],[0.75,1,0],[1,1,0],[0,0.25,0],[0,0.5,0],[0,0.75,0],[1,0.25,0],[1,0.5,0],[1,0.75,0]];outlineConnect=0;fontColor=#232F3E;fillColor=#7AA116;strokeColor=#ffffff;dashed=0;verticalLabelPosition=bottom;verticalAlign=top;align=center;html=1;fontSize=12;fontStyle=0;aspect=fixed;shape=mxgraph.aws4.resourceIcon;resIcon=mxgraph.aws4.s3;" parent="1" vertex="1">
          <mxGeometry x="950" y="500" width="40" height="40" as="geometry" />
        </mxCell>
        <mxCell id="vnbIYVcIa1wXDEjVaEzZ-7" value="s3_object_storage_table" style="outlineConnect=0;dashed=0;verticalLabelPosition=bottom;verticalAlign=top;align=center;html=1;shape=mxgraph.aws3.dynamo_db;fillColor=#2E73B8;gradientColor=none;" parent="1" vertex="1">
          <mxGeometry x="960" y="400" width="40" height="40" as="geometry" />
        </mxCell>
        <mxCell id="vnbIYVcIa1wXDEjVaEzZ-15" value="AWS" style="outlineConnect=0;dashed=0;verticalLabelPosition=bottom;verticalAlign=top;align=center;html=1;shape=mxgraph.aws3.vpc;fillColor=#F58536;gradientColor=none;" parent="1" vertex="1">
          <mxGeometry x="50" y="80" width="40" height="40" as="geometry" />
        </mxCell>
        <mxCell id="vnbIYVcIa1wXDEjVaEzZ-4" value="testimonials" style="outlineConnect=0;dashed=0;verticalLabelPosition=bottom;verticalAlign=top;align=center;html=1;shape=mxgraph.aws3.postgre_sql_instance;fillColor=#2E73B8;gradientColor=none;" parent="1" vertex="1">
          <mxGeometry x="920" y="750" width="40" height="40" as="geometry" />
        </mxCell>
        <mxCell id="vnbIYVcIa1wXDEjVaEzZ-5" value="destinations" style="outlineConnect=0;dashed=0;verticalLabelPosition=bottom;verticalAlign=top;align=center;html=1;shape=mxgraph.aws3.postgre_sql_instance;fillColor=#2E73B8;gradientColor=none;" parent="1" vertex="1">
          <mxGeometry x="500" y="750" width="40" height="40" as="geometry" />
        </mxCell>
        <mxCell id="vnbIYVcIa1wXDEjVaEzZ-3" value="users" style="outlineConnect=0;dashed=0;verticalLabelPosition=bottom;verticalAlign=top;align=center;html=1;shape=mxgraph.aws3.postgre_sql_instance;fillColor=#2E73B8;gradientColor=none;" parent="1" vertex="1">
          <mxGeometry x="150" y="750" width="40" height="40" as="geometry" />
        </mxCell>
        <mxCell id="vnbIYVcIa1wXDEjVaEzZ-20" value="Amazon RDS" style="sketch=0;outlineConnect=0;fontColor=#232F3E;gradientColor=none;strokeColor=#ffffff;fillColor=#232F3E;dashed=0;verticalLabelPosition=middle;verticalAlign=bottom;align=center;html=1;whiteSpace=wrap;fontSize=6;fontStyle=1;spacing=3;shape=mxgraph.aws4.productIcon;prIcon=mxgraph.aws4.rds;" parent="1" vertex="1">
          <mxGeometry x="65" y="710" width="30" height="50" as="geometry" />
        </mxCell>
        <mxCell id="vnbIYVcIa1wXDEjVaEzZ-21" value="POST /users" style="sketch=0;outlineConnect=0;fontColor=#232F3E;gradientColor=none;fillColor=#E7157B;strokeColor=none;dashed=0;verticalLabelPosition=bottom;verticalAlign=top;align=center;html=1;fontSize=12;fontStyle=0;aspect=fixed;pointerEvents=1;shape=mxgraph.aws4.endpoint;" parent="1" vertex="1">
          <mxGeometry x="170" y="400" width="40" height="40" as="geometry" />
        </mxCell>
        <mxCell id="vnbIYVcIa1wXDEjVaEzZ-22" value="PUT /users" style="sketch=0;outlineConnect=0;fontColor=#232F3E;gradientColor=none;fillColor=#E7157B;strokeColor=none;dashed=0;verticalLabelPosition=bottom;verticalAlign=top;align=center;html=1;fontSize=12;fontStyle=0;aspect=fixed;pointerEvents=1;shape=mxgraph.aws4.endpoint;" parent="1" vertex="1">
          <mxGeometry x="130" y="320" width="40" height="40" as="geometry" />
        </mxCell>
        <mxCell id="vnbIYVcIa1wXDEjVaEzZ-23" value="POST /login" style="sketch=0;outlineConnect=0;fontColor=#232F3E;gradientColor=none;fillColor=#E7157B;strokeColor=none;dashed=0;verticalLabelPosition=bottom;verticalAlign=top;align=center;html=1;fontSize=12;fontStyle=0;aspect=fixed;pointerEvents=1;shape=mxgraph.aws4.endpoint;" parent="1" vertex="1">
          <mxGeometry x="90" y="400" width="40" height="40" as="geometry" />
        </mxCell>
        <mxCell id="vnbIYVcIa1wXDEjVaEzZ-24" value="POST /testimonials" style="sketch=0;outlineConnect=0;fontColor=#232F3E;gradientColor=none;fillColor=#E7157B;strokeColor=none;dashed=0;verticalLabelPosition=bottom;verticalAlign=top;align=center;html=1;fontSize=12;fontStyle=0;aspect=fixed;pointerEvents=1;shape=mxgraph.aws4.endpoint;" parent="1" vertex="1">
          <mxGeometry x="330" y="135" width="40" height="40" as="geometry" />
        </mxCell>
        <mxCell id="vnbIYVcIa1wXDEjVaEzZ-26" value="GET /testimonials" style="sketch=0;outlineConnect=0;fontColor=#232F3E;gradientColor=none;fillColor=#E7157B;strokeColor=none;dashed=0;verticalLabelPosition=bottom;verticalAlign=top;align=center;html=1;fontSize=12;fontStyle=0;aspect=fixed;pointerEvents=1;shape=mxgraph.aws4.endpoint;" parent="1" vertex="1">
          <mxGeometry x="350" y="225" width="40" height="40" as="geometry" />
        </mxCell>
        <mxCell id="vnbIYVcIa1wXDEjVaEzZ-27" value="PUT /testimonials" style="sketch=0;outlineConnect=0;fontColor=#232F3E;gradientColor=none;fillColor=#E7157B;strokeColor=none;dashed=0;verticalLabelPosition=bottom;verticalAlign=top;align=center;html=1;fontSize=12;fontStyle=0;aspect=fixed;pointerEvents=1;shape=mxgraph.aws4.endpoint;" parent="1" vertex="1">
          <mxGeometry x="456" y="235" width="40" height="40" as="geometry" />
        </mxCell>
        <mxCell id="vnbIYVcIa1wXDEjVaEzZ-28" value="DELETE /testimonials" style="sketch=0;outlineConnect=0;fontColor=#232F3E;gradientColor=none;fillColor=#E7157B;strokeColor=none;dashed=0;verticalLabelPosition=bottom;verticalAlign=top;align=center;html=1;fontSize=12;fontStyle=0;aspect=fixed;pointerEvents=1;shape=mxgraph.aws4.endpoint;" parent="1" vertex="1">
          <mxGeometry x="456" y="135" width="40" height="40" as="geometry" />
        </mxCell>
        <mxCell id="vnbIYVcIa1wXDEjVaEzZ-29" value="GET /testimonials/{id}" style="sketch=0;outlineConnect=0;fontColor=#232F3E;gradientColor=none;fillColor=#E7157B;strokeColor=none;dashed=0;verticalLabelPosition=bottom;verticalAlign=top;align=center;html=1;fontSize=12;fontStyle=0;aspect=fixed;pointerEvents=1;shape=mxgraph.aws4.endpoint;" parent="1" vertex="1">
          <mxGeometry x="566" y="235" width="40" height="40" as="geometry" />
        </mxCell>
        <mxCell id="vnbIYVcIa1wXDEjVaEzZ-30" value="GET /testimonials-home" style="sketch=0;outlineConnect=0;fontColor=#232F3E;gradientColor=none;fillColor=#E7157B;strokeColor=none;dashed=0;verticalLabelPosition=bottom;verticalAlign=top;align=center;html=1;fontSize=12;fontStyle=0;aspect=fixed;pointerEvents=1;shape=mxgraph.aws4.endpoint;" parent="1" vertex="1">
          <mxGeometry x="556" y="155" width="40" height="40" as="geometry" />
        </mxCell>
        <mxCell id="vnbIYVcIa1wXDEjVaEzZ-31" value="POST /destinations" style="sketch=0;outlineConnect=0;fontColor=#232F3E;gradientColor=none;fillColor=#E7157B;strokeColor=none;dashed=0;verticalLabelPosition=bottom;verticalAlign=top;align=center;html=1;fontSize=12;fontStyle=0;aspect=fixed;pointerEvents=1;shape=mxgraph.aws4.endpoint;" parent="1" vertex="1">
          <mxGeometry x="890" y="130" width="40" height="40" as="geometry" />
        </mxCell>
        <mxCell id="vnbIYVcIa1wXDEjVaEzZ-32" value="GET /destinations" style="sketch=0;outlineConnect=0;fontColor=#232F3E;gradientColor=none;fillColor=#E7157B;strokeColor=none;dashed=0;verticalLabelPosition=bottom;verticalAlign=top;align=center;html=1;fontSize=12;fontStyle=0;aspect=fixed;pointerEvents=1;shape=mxgraph.aws4.endpoint;" parent="1" vertex="1">
          <mxGeometry x="787" y="120" width="40" height="40" as="geometry" />
        </mxCell>
        <mxCell id="vnbIYVcIa1wXDEjVaEzZ-33" value="PUT /destinations" style="sketch=0;outlineConnect=0;fontColor=#232F3E;gradientColor=none;fillColor=#E7157B;strokeColor=none;dashed=0;verticalLabelPosition=bottom;verticalAlign=top;align=center;html=1;fontSize=12;fontStyle=0;aspect=fixed;pointerEvents=1;shape=mxgraph.aws4.endpoint;" parent="1" vertex="1">
          <mxGeometry x="810" y="210" width="40" height="40" as="geometry" />
        </mxCell>
        <mxCell id="vnbIYVcIa1wXDEjVaEzZ-34" value="DELETE /destinations" style="sketch=0;outlineConnect=0;fontColor=#232F3E;gradientColor=none;fillColor=#E7157B;strokeColor=none;dashed=0;verticalLabelPosition=bottom;verticalAlign=top;align=center;html=1;fontSize=12;fontStyle=0;aspect=fixed;pointerEvents=1;shape=mxgraph.aws4.endpoint;" parent="1" vertex="1">
          <mxGeometry x="990" y="120" width="40" height="40" as="geometry" />
        </mxCell>
        <mxCell id="vnbIYVcIa1wXDEjVaEzZ-35" value="GET /destinations/{id}" style="sketch=0;outlineConnect=0;fontColor=#232F3E;gradientColor=none;fillColor=#E7157B;strokeColor=none;dashed=0;verticalLabelPosition=bottom;verticalAlign=top;align=center;html=1;fontSize=12;fontStyle=0;aspect=fixed;pointerEvents=1;shape=mxgraph.aws4.endpoint;" parent="1" vertex="1">
          <mxGeometry x="985" y="200" width="40" height="40" as="geometry" />
        </mxCell>
        <mxCell id="vnbIYVcIa1wXDEjVaEzZ-56" style="edgeStyle=orthogonalEdgeStyle;rounded=0;orthogonalLoop=1;jettySize=auto;html=1;" parent="1" target="vnbIYVcIa1wXDEjVaEzZ-51" edge="1">
          <mxGeometry relative="1" as="geometry">
            <Array as="points">
              <mxPoint x="800" y="588" />
              <mxPoint x="800" y="530" />
            </Array>
            <mxPoint x="567" y="588" as="sourcePoint" />
          </mxGeometry>
        </mxCell>
        <mxCell id="vnbIYVcIa1wXDEjVaEzZ-42" style="edgeStyle=orthogonalEdgeStyle;rounded=0;orthogonalLoop=1;jettySize=auto;html=1;entryX=0.599;entryY=0;entryDx=0;entryDy=0;entryPerimeter=0;exitX=1;exitY=0.75;exitDx=0;exitDy=0;exitPerimeter=0;" parent="1" target="vnbIYVcIa1wXDEjVaEzZ-19" edge="1">
          <mxGeometry relative="1" as="geometry">
            <mxPoint x="567" y="599" as="sourcePoint" />
          </mxGeometry>
        </mxCell>
        <mxCell id="vnbIYVcIa1wXDEjVaEzZ-43" value="JDBC (JPA)" style="edgeLabel;html=1;align=center;verticalAlign=middle;resizable=0;points=[];" parent="vnbIYVcIa1wXDEjVaEzZ-42" vertex="1" connectable="0">
          <mxGeometry x="-0.2595" relative="1" as="geometry">
            <mxPoint as="offset" />
          </mxGeometry>
        </mxCell>
        <mxCell id="vnbIYVcIa1wXDEjVaEzZ-51" value="AWS SDK" style="sketch=0;outlineConnect=0;fontColor=#232F3E;gradientColor=none;fillColor=#232F3D;strokeColor=none;dashed=0;verticalLabelPosition=bottom;verticalAlign=top;align=center;html=1;fontSize=12;fontStyle=0;aspect=fixed;pointerEvents=1;shape=mxgraph.aws4.external_sdk;" parent="1" vertex="1">
          <mxGeometry x="820" y="510" width="34" height="39" as="geometry" />
        </mxCell>
        <mxCell id="vnbIYVcIa1wXDEjVaEzZ-52" style="edgeStyle=orthogonalEdgeStyle;rounded=0;orthogonalLoop=1;jettySize=auto;html=1;entryX=0;entryY=0.75;entryDx=0;entryDy=0;entryPerimeter=0;" parent="1" source="vnbIYVcIa1wXDEjVaEzZ-51" target="vnbIYVcIa1wXDEjVaEzZ-2" edge="1">
          <mxGeometry relative="1" as="geometry" />
        </mxCell>
        <mxCell id="vnbIYVcIa1wXDEjVaEzZ-53" style="edgeStyle=orthogonalEdgeStyle;rounded=0;orthogonalLoop=1;jettySize=auto;html=1;entryX=0;entryY=0.25;entryDx=0;entryDy=0;entryPerimeter=0;" parent="1" source="vnbIYVcIa1wXDEjVaEzZ-51" target="vnbIYVcIa1wXDEjVaEzZ-1" edge="1">
          <mxGeometry relative="1" as="geometry" />
        </mxCell>
        <mxCell id="vnbIYVcIa1wXDEjVaEzZ-54" style="edgeStyle=orthogonalEdgeStyle;rounded=0;orthogonalLoop=1;jettySize=auto;html=1;entryX=0;entryY=0.5;entryDx=0;entryDy=0;entryPerimeter=0;" parent="1" source="vnbIYVcIa1wXDEjVaEzZ-51" target="vnbIYVcIa1wXDEjVaEzZ-7" edge="1">
          <mxGeometry relative="1" as="geometry" />
        </mxCell>
        <mxCell id="vnbIYVcIa1wXDEjVaEzZ-58" value="journey-miles-alb" style="outlineConnect=0;dashed=0;verticalLabelPosition=top;verticalAlign=bottom;align=right;html=1;shape=mxgraph.aws3.application_load_balancer;fillColor=#F58536;gradientColor=none;labelPosition=left;" parent="1" vertex="1">
          <mxGeometry x="530" y="424" width="30" height="36" as="geometry" />
        </mxCell>
        <mxCell id="vnbIYVcIa1wXDEjVaEzZ-59" style="edgeStyle=orthogonalEdgeStyle;rounded=0;orthogonalLoop=1;jettySize=auto;html=1;entryX=0.5;entryY=0;entryDx=0;entryDy=0;entryPerimeter=0;" parent="1" source="vnbIYVcIa1wXDEjVaEzZ-58" edge="1">
          <mxGeometry relative="1" as="geometry">
            <mxPoint x="545" y="566" as="targetPoint" />
          </mxGeometry>
        </mxCell>
        <mxCell id="vnbIYVcIa1wXDEjVaEzZ-60" value="HTTP" style="edgeLabel;html=1;align=center;verticalAlign=middle;resizable=0;points=[];" parent="vnbIYVcIa1wXDEjVaEzZ-59" vertex="1" connectable="0">
          <mxGeometry x="-0.0377" y="2" relative="1" as="geometry">
            <mxPoint as="offset" />
          </mxGeometry>
        </mxCell>
        <mxCell id="vnbIYVcIa1wXDEjVaEzZ-63" style="edgeStyle=orthogonalEdgeStyle;rounded=0;orthogonalLoop=1;jettySize=auto;html=1;entryX=1;entryY=0.5;entryDx=0;entryDy=0;entryPerimeter=0;" parent="1" source="vnbIYVcIa1wXDEjVaEzZ-61" target="vnbIYVcIa1wXDEjVaEzZ-58" edge="1">
          <mxGeometry relative="1" as="geometry">
            <Array as="points">
              <mxPoint x="890" y="442" />
            </Array>
          </mxGeometry>
        </mxCell>
        <mxCell id="vnbIYVcIa1wXDEjVaEzZ-65" style="edgeStyle=orthogonalEdgeStyle;rounded=0;orthogonalLoop=1;jettySize=auto;html=1;entryX=0.5;entryY=0;entryDx=0;entryDy=0;entryPerimeter=0;" parent="1" source="vnbIYVcIa1wXDEjVaEzZ-64" target="vnbIYVcIa1wXDEjVaEzZ-58" edge="1">
          <mxGeometry relative="1" as="geometry" />
        </mxCell>
        <mxCell id="vnbIYVcIa1wXDEjVaEzZ-67" style="edgeStyle=orthogonalEdgeStyle;rounded=0;orthogonalLoop=1;jettySize=auto;html=1;entryX=0;entryY=0.5;entryDx=0;entryDy=0;entryPerimeter=0;" parent="1" source="vnbIYVcIa1wXDEjVaEzZ-66" target="vnbIYVcIa1wXDEjVaEzZ-58" edge="1">
          <mxGeometry relative="1" as="geometry" />
        </mxCell>
        <mxCell id="4G7G7Z83K_GJUfsltvQw-1" value="Amazon EKS" style="sketch=0;outlineConnect=0;fontColor=#232F3E;gradientColor=none;strokeColor=#ffffff;fillColor=#232F3E;dashed=0;verticalLabelPosition=bottom;verticalAlign=top;align=center;html=1;whiteSpace=wrap;fontSize=10;fontStyle=1;spacing=3;shape=mxgraph.aws4.productIcon;prIcon=mxgraph.aws4.eks;labelPosition=center;" vertex="1" parent="1">
          <mxGeometry x="340" y="540" width="30" height="40" as="geometry" />
        </mxCell>
        <mxCell id="4G7G7Z83K_GJUfsltvQw-2" value="journeymiles-service" style="aspect=fixed;sketch=0;html=1;dashed=0;whitespace=wrap;fillColor=#2875E2;strokeColor=#ffffff;points=[[0.005,0.63,0],[0.1,0.2,0],[0.9,0.2,0],[0.5,0,0],[0.995,0.63,0],[0.72,0.99,0],[0.5,1,0],[0.28,0.99,0]];shape=mxgraph.kubernetes.icon2;kubernetesLabel=1;prIcon=pod;labelPosition=center;verticalLabelPosition=bottom;align=center;verticalAlign=top;" vertex="1" parent="1">
          <mxGeometry x="530" y="563" width="44.79" height="43" as="geometry" />
        </mxCell>
      </root>
    </mxGraphModel>
  </diagram>
</mxfile>
